<svg width="230" height="230" viewBox="0 0 230 230" fill="none" xmlns="http://www.w3.org/2000/svg">
<g clip-path="url(#clip0_74_74)">
<circle cx="114.5" cy="115.5" r="107.5" fill="#010102"/>
<circle cx="115" cy="115" r="114.5" stroke="#44219A"/>
<mask id="path-3-inside-1_74_74" fill="white">
<path d="M148.547 56.4884L92.725 51.0949L89.3221 39.837C89.2038 39.4595 88.9473 39.1261 88.5916 38.8877C88.236 38.6494 87.8008 38.5192 87.3524 38.517H78.9726C78.6698 38.1611 78.2766 37.8712 77.8239 37.6701C77.3713 37.469 76.8714 37.3621 76.3636 37.3579C75.4715 37.3579 74.616 37.6673 73.9852 38.2181C73.3544 38.7689 73 39.5159 73 40.2948C73 41.0737 73.3544 41.8207 73.9852 42.3715C74.616 42.9222 75.4715 43.2317 76.3636 43.2317C77.4473 43.2317 78.363 42.7586 78.978 42.0678H85.7838L99.9533 88.9065C98.4077 90.343 97.5456 92.2391 97.5421 94.2101C97.541 95.2332 97.7709 96.2464 98.2188 97.1917C98.6666 98.1371 99.3234 98.9961 100.152 99.7197C100.98 100.443 101.964 101.017 103.046 101.408C104.129 101.8 105.289 102.001 106.461 102C108.828 102.001 111.099 101.18 112.774 99.7197C114.449 98.2589 115.391 96.2772 115.394 94.2101C115.389 93.6176 115.304 93.0277 115.142 92.4525H130.132C129.972 93.028 129.888 93.6178 129.883 94.2101C129.883 98.5155 133.882 102 138.813 102C143.744 102 147.734 98.5155 147.734 94.2101C147.735 92.1427 146.795 90.1596 145.122 88.697C143.448 87.2344 141.178 86.412 138.81 86.4108C136.236 86.4108 133.933 87.3807 132.302 88.9017H112.969C112.139 88.1175 111.133 87.4915 110.013 87.0628C108.893 86.6342 107.684 86.4122 106.461 86.4108C105.432 86.4108 104.462 86.5953 103.543 86.8744L103.05 85.2516H142.56C144.078 85.2245 145.542 84.7527 146.716 83.9118C147.89 83.0709 148.707 81.9099 149.035 80.6151L153.302 62.1682C153.374 61.8455 153.41 61.5176 153.41 61.1889C153.412 60.0179 152.916 58.888 152.017 58.0189C151.118 57.1498 149.881 56.6058 148.547 56.4884ZM138.815 94.9056C138.603 94.905 138.4 94.8314 138.249 94.7008C138.098 94.5702 138.013 94.3931 138.011 94.2078C138.019 93.8151 138.376 93.5028 138.818 93.5028C139.26 93.5028 139.617 93.8151 139.623 94.2054C139.62 94.3903 139.534 94.5668 139.383 94.6969C139.233 94.827 139.03 94.9003 138.818 94.9009L138.815 94.9056ZM143.638 77.1755L146.206 74.9282L145.345 78.6658L143.638 77.1755ZM104.481 55.7977L107.285 58.2532L103.79 61.3048L100.287 58.2532L103.232 55.6794L104.481 55.7977ZM116.667 56.9757L118.125 58.2532L114.63 61.3048L111.126 58.2532L112.99 56.6209L116.667 56.9757ZM96.014 61.9813L98.3711 59.928L101.866 62.9843L98.3711 66.036L96.8404 64.7041L96.0167 61.979L96.014 61.9813ZM95.2148 59.3319L94.3261 56.3985L96.4529 58.2555L95.2148 59.3319ZM128.959 67.7155L125.464 70.7671L121.961 67.7155L125.461 64.6568L128.959 67.7155ZM127.379 62.9843L130.88 59.928L134.375 62.9843L130.88 66.0407L127.379 62.9843ZM120.045 66.036L116.542 62.9843L120.043 59.9256L123.538 62.982L120.045 66.036ZM118.122 67.7155L114.627 70.7671L111.126 67.7155L114.627 64.6568L118.122 67.7155ZM109.208 66.036L105.705 62.9843L109.206 59.9256L112.701 62.982L109.208 66.036ZM107.285 67.7155L103.79 70.7671L100.287 67.7155L103.787 64.6568L107.285 67.7155ZM98.3711 69.388L101.866 72.4443L99.742 74.2966L98.279 69.4613L98.3684 69.3833L98.3711 69.388ZM100.544 76.9508L103.787 74.1192L107.282 77.1755L103.787 80.2271L100.725 77.554L100.544 76.9508ZM105.708 72.4443L109.203 69.3856L112.706 72.442L109.211 75.4936L105.711 72.442L105.708 72.4443ZM114.627 74.1168L118.127 77.1731L114.627 80.2248L111.126 77.1731L114.627 74.1168ZM116.545 72.442L120.045 69.3833L123.54 72.4396L120.045 75.4912L116.545 72.442ZM125.459 74.1144L128.962 77.1708L125.467 80.2224L121.966 77.1661L125.459 74.1144ZM127.382 72.4396L130.877 69.3809L134.38 72.4372L130.885 75.4888L127.382 72.4396ZM132.801 67.7084L136.296 64.6497L139.799 67.7061L136.304 70.7577L132.801 67.7084ZM138.219 62.9772L141.714 59.9185L145.215 62.9843L141.72 66.0407L138.217 62.982L138.219 62.9772ZM136.296 61.3024L133.166 58.5678L138.807 59.1119L136.296 61.3024ZM128.964 58.2532L125.469 61.3095L121.966 58.2532L122.752 57.5671L128.856 58.1585L128.964 58.2532ZM109.214 56.5736L108.802 56.2188L109.541 56.2897L109.216 56.5736H109.214ZM98.3765 56.5783L96.6155 55.0407L99.7854 55.3482L98.3765 56.5783ZM109.214 78.8504L112.478 81.7009H105.949L109.214 78.8504ZM120.051 78.8504L123.316 81.7033H116.781L120.051 78.8504ZM130.888 78.8504L134.158 81.7056H127.618L130.888 78.8504ZM132.803 77.1755L136.304 74.1168L139.799 77.1731L136.304 80.2248L132.803 77.1755ZM138.222 72.4443L141.722 69.388L145.217 72.4396L141.722 75.4983L138.219 72.4467L138.222 72.4443ZM147.141 70.7648L143.641 67.7132L147.136 64.6568L148.341 65.7071L147.176 70.7316L147.138 70.7671L147.141 70.7648ZM148.496 60.1196L147.141 61.3024L145.353 59.7482L148.108 60.0132C148.254 60.0321 148.379 60.0747 148.498 60.1172L148.496 60.1196ZM106.466 94.9032C106.261 94.8928 106.069 94.8144 105.928 94.684C105.787 94.5536 105.708 94.3811 105.708 94.2018C105.708 94.0226 105.787 93.8501 105.928 93.7197C106.069 93.5893 106.261 93.5108 106.466 93.5004C106.671 93.5108 106.863 93.589 107.003 93.719C107.144 93.8489 107.222 94.0208 107.222 94.1995C107.222 94.3781 107.144 94.5501 107.003 94.68C106.863 94.81 106.671 94.8881 106.466 94.8985V94.9032ZM142.562 81.7033H138.452L141.722 78.848L144.242 81.048C143.735 81.4501 143.096 81.734 142.562 81.7033Z"/>
</mask>
<path d="M148.547 56.4884L92.725 51.0949L89.3221 39.837C89.2038 39.4595 88.9473 39.1261 88.5916 38.8877C88.236 38.6494 87.8008 38.5192 87.3524 38.517H78.9726C78.6698 38.1611 78.2766 37.8712 77.8239 37.6701C77.3713 37.469 76.8714 37.3621 76.3636 37.3579C75.4715 37.3579 74.616 37.6673 73.9852 38.2181C73.3544 38.7689 73 39.5159 73 40.2948C73 41.0737 73.3544 41.8207 73.9852 42.3715C74.616 42.9222 75.4715 43.2317 76.3636 43.2317C77.4473 43.2317 78.363 42.7586 78.978 42.0678H85.7838L99.9533 88.9065C98.4077 90.343 97.5456 92.2391 97.5421 94.2101C97.541 95.2332 97.7709 96.2464 98.2188 97.1917C98.6666 98.1371 99.3234 98.9961 100.152 99.7197C100.98 100.443 101.964 101.017 103.046 101.408C104.129 101.8 105.289 102.001 106.461 102C108.828 102.001 111.099 101.18 112.774 99.7197C114.449 98.2589 115.391 96.2772 115.394 94.2101C115.389 93.6176 115.304 93.0277 115.142 92.4525H130.132C129.972 93.028 129.888 93.6178 129.883 94.2101C129.883 98.5155 133.882 102 138.813 102C143.744 102 147.734 98.5155 147.734 94.2101C147.735 92.1427 146.795 90.1596 145.122 88.697C143.448 87.2344 141.178 86.412 138.81 86.4108C136.236 86.4108 133.933 87.3807 132.302 88.9017H112.969C112.139 88.1175 111.133 87.4915 110.013 87.0628C108.893 86.6342 107.684 86.4122 106.461 86.4108C105.432 86.4108 104.462 86.5953 103.543 86.8744L103.05 85.2516H142.56C144.078 85.2245 145.542 84.7527 146.716 83.9118C147.89 83.0709 148.707 81.9099 149.035 80.6151L153.302 62.1682C153.374 61.8455 153.41 61.5176 153.41 61.1889C153.412 60.0179 152.916 58.888 152.017 58.0189C151.118 57.1498 149.881 56.6058 148.547 56.4884ZM138.815 94.9056C138.603 94.905 138.4 94.8314 138.249 94.7008C138.098 94.5702 138.013 94.3931 138.011 94.2078C138.019 93.8151 138.376 93.5028 138.818 93.5028C139.26 93.5028 139.617 93.8151 139.623 94.2054C139.62 94.3903 139.534 94.5668 139.383 94.6969C139.233 94.827 139.03 94.9003 138.818 94.9009L138.815 94.9056ZM143.638 77.1755L146.206 74.9282L145.345 78.6658L143.638 77.1755ZM104.481 55.7977L107.285 58.2532L103.79 61.3048L100.287 58.2532L103.232 55.6794L104.481 55.7977ZM116.667 56.9757L118.125 58.2532L114.63 61.3048L111.126 58.2532L112.99 56.6209L116.667 56.9757ZM96.014 61.9813L98.3711 59.928L101.866 62.9843L98.3711 66.036L96.8404 64.7041L96.0167 61.979L96.014 61.9813ZM95.2148 59.3319L94.3261 56.3985L96.4529 58.2555L95.2148 59.3319ZM128.959 67.7155L125.464 70.7671L121.961 67.7155L125.461 64.6568L128.959 67.7155ZM127.379 62.9843L130.88 59.928L134.375 62.9843L130.88 66.0407L127.379 62.9843ZM120.045 66.036L116.542 62.9843L120.043 59.9256L123.538 62.982L120.045 66.036ZM118.122 67.7155L114.627 70.7671L111.126 67.7155L114.627 64.6568L118.122 67.7155ZM109.208 66.036L105.705 62.9843L109.206 59.9256L112.701 62.982L109.208 66.036ZM107.285 67.7155L103.79 70.7671L100.287 67.7155L103.787 64.6568L107.285 67.7155ZM98.3711 69.388L101.866 72.4443L99.742 74.2966L98.279 69.4613L98.3684 69.3833L98.3711 69.388ZM100.544 76.9508L103.787 74.1192L107.282 77.1755L103.787 80.2271L100.725 77.554L100.544 76.9508ZM105.708 72.4443L109.203 69.3856L112.706 72.442L109.211 75.4936L105.711 72.442L105.708 72.4443ZM114.627 74.1168L118.127 77.1731L114.627 80.2248L111.126 77.1731L114.627 74.1168ZM116.545 72.442L120.045 69.3833L123.54 72.4396L120.045 75.4912L116.545 72.442ZM125.459 74.1144L128.962 77.1708L125.467 80.2224L121.966 77.1661L125.459 74.1144ZM127.382 72.4396L130.877 69.3809L134.38 72.4372L130.885 75.4888L127.382 72.4396ZM132.801 67.7084L136.296 64.6497L139.799 67.7061L136.304 70.7577L132.801 67.7084ZM138.219 62.9772L141.714 59.9185L145.215 62.9843L141.72 66.0407L138.217 62.982L138.219 62.9772ZM136.296 61.3024L133.166 58.5678L138.807 59.1119L136.296 61.3024ZM128.964 58.2532L125.469 61.3095L121.966 58.2532L122.752 57.5671L128.856 58.1585L128.964 58.2532ZM109.214 56.5736L108.802 56.2188L109.541 56.2897L109.216 56.5736H109.214ZM98.3765 56.5783L96.6155 55.0407L99.7854 55.3482L98.3765 56.5783ZM109.214 78.8504L112.478 81.7009H105.949L109.214 78.8504ZM120.051 78.8504L123.316 81.7033H116.781L120.051 78.8504ZM130.888 78.8504L134.158 81.7056H127.618L130.888 78.8504ZM132.803 77.1755L136.304 74.1168L139.799 77.1731L136.304 80.2248L132.803 77.1755ZM138.222 72.4443L141.722 69.388L145.217 72.4396L141.722 75.4983L138.219 72.4467L138.222 72.4443ZM147.141 70.7648L143.641 67.7132L147.136 64.6568L148.341 65.7071L147.176 70.7316L147.138 70.7671L147.141 70.7648ZM148.496 60.1196L147.141 61.3024L145.353 59.7482L148.108 60.0132C148.254 60.0321 148.379 60.0747 148.498 60.1172L148.496 60.1196ZM106.466 94.9032C106.261 94.8928 106.069 94.8144 105.928 94.684C105.787 94.5536 105.708 94.3811 105.708 94.2018C105.708 94.0226 105.787 93.8501 105.928 93.7197C106.069 93.5893 106.261 93.5108 106.466 93.5004C106.671 93.5108 106.863 93.589 107.003 93.719C107.144 93.8489 107.222 94.0208 107.222 94.1995C107.222 94.3781 107.144 94.5501 107.003 94.68C106.863 94.81 106.671 94.8881 106.466 94.8985V94.9032ZM142.562 81.7033H138.452L141.722 78.848L144.242 81.048C143.735 81.4501 143.096 81.734 142.562 81.7033Z" stroke="#44219A" stroke-width="2" mask="url(#path-3-inside-1_74_74)"/>
<path d="M152.137 52.1305L96.3148 46.737L92.9119 35.4791C92.7936 35.1016 92.5371 34.7681 92.1815 34.5298C91.8258 34.2915 91.3906 34.1613 90.9423 34.1591H82.5625C82.2596 33.8032 81.8664 33.5133 81.4138 33.3122C80.9611 33.1111 80.4613 33.0042 79.9534 33C79.0613 33 78.2058 33.3094 77.575 33.8602C76.9442 34.411 76.5898 35.158 76.5898 35.9369C76.5898 36.7158 76.9442 37.4628 77.575 38.0136C78.2058 38.5643 79.0613 38.8738 79.9534 38.8738C81.0371 38.8738 81.9529 38.4006 82.5679 37.7099H89.3736L103.543 84.5486C101.998 85.9851 101.135 87.8812 101.132 89.8522C101.131 90.8753 101.361 91.8885 101.809 92.8338C102.256 93.7792 102.913 94.6382 103.742 95.3617C104.57 96.0853 105.554 96.6591 106.636 97.0504C107.719 97.4416 108.879 97.6427 110.051 97.6421C112.418 97.6427 114.689 96.8225 116.364 95.3618C118.039 93.901 118.981 91.9193 118.983 89.8522C118.979 89.2597 118.894 88.6698 118.731 88.0946H133.722C133.562 88.6701 133.478 89.2599 133.473 89.8522C133.473 94.1576 137.472 97.6421 142.402 97.6421C147.333 97.6421 151.324 94.1576 151.324 89.8522C151.325 87.7847 150.385 85.8017 148.712 84.3391C147.038 82.8765 144.768 82.0541 142.4 82.0529C139.826 82.0529 137.523 83.0228 135.892 84.5438H116.559C115.729 83.7596 114.723 83.1336 113.603 82.7049C112.483 82.2763 111.274 82.0543 110.051 82.0529C109.021 82.0529 108.051 82.2374 107.133 82.5165L106.64 80.8937H146.149C147.668 80.8666 149.132 80.3948 150.306 79.5539C151.48 78.713 152.297 77.552 152.625 76.2572L156.892 57.8103C156.964 57.4876 157 57.1597 157 56.8309C157.002 55.66 156.506 54.5301 155.607 53.661C154.708 52.7919 153.471 52.2479 152.137 52.1305ZM142.405 90.5477C142.193 90.5471 141.989 90.4735 141.839 90.3429C141.688 90.2123 141.603 90.0352 141.601 89.8498C141.609 89.4572 141.966 89.1449 142.408 89.1449C142.849 89.1449 143.207 89.4572 143.213 89.8475C143.21 90.0324 143.124 90.2089 142.973 90.339C142.823 90.4691 142.62 90.5424 142.408 90.543L142.405 90.5477ZM147.228 72.8176L149.796 70.5703L148.935 74.3079L147.228 72.8176ZM108.07 51.4398L110.875 53.8953L107.38 56.9469L103.876 53.8953L106.821 51.3215L108.07 51.4398ZM120.257 52.6178L121.714 53.8953L118.219 56.9469L114.716 53.8953L116.58 52.263L120.257 52.6178ZM99.6039 57.6234L101.961 55.5701L105.456 58.6264L101.961 61.678L100.43 60.3462L99.6066 57.6211L99.6039 57.6234ZM98.8046 54.974L97.916 52.0406L100.043 53.8976L98.8046 54.974ZM132.549 63.3576L129.054 66.4092L125.551 63.3576L129.051 60.2989L132.549 63.3576ZM130.969 58.6264L134.47 55.5701L137.965 58.6264L134.47 61.6828L130.969 58.6264ZM123.635 61.678L120.132 58.6264L123.633 55.5677L127.128 58.6241L123.635 61.678ZM121.712 63.3576L118.217 66.4092L114.716 63.3576L118.217 60.2989L121.712 63.3576ZM112.798 61.678L109.295 58.6264L112.795 55.5677L116.29 58.6241L112.798 61.678ZM110.875 63.3576L107.38 66.4092L103.876 63.3576L107.377 60.2989L110.875 63.3576ZM101.961 65.0301L105.456 68.0864L103.332 69.9387L101.869 65.1034L101.958 65.0254L101.961 65.0301ZM104.134 72.5929L107.377 69.7613L110.872 72.8176L107.377 75.8692L104.315 73.1961L104.134 72.5929ZM109.298 68.0864L112.793 65.0277L116.296 68.0841L112.801 71.1357L109.3 68.0841L109.298 68.0864ZM118.217 69.7589L121.717 72.8152L118.217 75.8669L114.716 72.8152L118.217 69.7589ZM120.135 68.0841L123.635 65.0254L127.13 68.0817L123.635 71.1333L120.135 68.0841ZM129.048 69.7565L132.551 72.8129L129.057 75.8645L125.556 72.8081L129.048 69.7565ZM130.972 68.0817L134.467 65.023L137.97 68.0793L134.475 71.1309L130.972 68.0817ZM136.391 63.3505L139.886 60.2918L143.389 63.3482L139.894 66.3998L136.391 63.3505ZM141.809 58.6193L145.304 55.5606L148.805 58.6264L145.31 61.6828L141.806 58.6241L141.809 58.6193ZM139.886 56.9445L136.756 54.2099L142.397 54.754L139.886 56.9445ZM132.554 53.8953L129.059 56.9516L125.556 53.8953L126.342 53.2092L132.446 53.8006L132.554 53.8953ZM112.804 52.2157L112.392 51.8608L113.131 51.9318L112.806 52.2157H112.804ZM101.966 52.2204L100.205 50.6828L103.375 50.9903L101.966 52.2204ZM112.804 74.4924L116.068 77.343H109.539L112.804 74.4924ZM123.641 74.4924L126.905 77.3453H120.371L123.641 74.4924ZM134.478 74.4924L137.748 77.3477H131.208L134.478 74.4924ZM136.393 72.8176L139.894 69.7589L143.389 72.8152L139.894 75.8669L136.393 72.8176ZM141.812 68.0864L145.312 65.0301L148.807 68.0817L145.312 71.1404L141.809 68.0888L141.812 68.0864ZM150.731 66.4069L147.23 63.3552L150.725 60.2989L151.931 61.3492L150.766 66.3737L150.728 66.4092L150.731 66.4069ZM152.085 55.7617L150.731 56.9445L148.943 55.3903L151.698 55.6553C151.844 55.6742 151.969 55.7168 152.088 55.7593L152.085 55.7617ZM110.056 90.5453C109.851 90.5349 109.659 90.4565 109.518 90.3261C109.377 90.1957 109.298 90.0232 109.298 89.8439C109.298 89.6647 109.377 89.4922 109.518 89.3618C109.659 89.2314 109.851 89.1529 110.056 89.1425C110.261 89.1529 110.453 89.2311 110.593 89.361C110.733 89.491 110.812 89.6629 110.812 89.8416C110.812 90.0202 110.733 90.1921 110.593 90.3221C110.453 90.4521 110.261 90.5302 110.056 90.5406V90.5453ZM146.152 77.3453H142.042L145.312 74.4901L147.832 76.6901C147.325 77.0922 146.686 77.3761 146.152 77.3453Z" fill="#6E47DE"/>
<path d="M57.4 127.64C54.7067 127.64 52.28 127 50.12 125.72C47.96 124.413 46.2667 122.64 45.04 120.4C43.8133 118.16 43.2 115.693 43.2 113C43.2 110.413 43.8133 108.04 45.04 105.88C46.2933 103.72 48.0267 102.013 50.24 100.76C52.4533 99.5067 54.9733 98.88 57.8 98.88C59.3467 98.88 60.84 99.0533 62.28 99.4C63.7467 99.7467 65.0667 100.24 66.24 100.88L63.6 107.08C61.7867 106.333 60.0933 105.96 58.52 105.96C56.4667 105.96 54.88 106.627 53.76 107.96C52.64 109.267 52.08 110.987 52.08 113.12C52.08 114.507 52.3333 115.76 52.84 116.88C53.3467 117.973 54.0533 118.84 54.96 119.48C55.8933 120.12 56.9467 120.44 58.12 120.44C58.76 120.44 59.2933 120.387 59.72 120.28V113.84L66.64 113.04V125.56C63.6267 126.947 60.5467 127.64 57.4 127.64ZM116.466 127.64C113.8 127.64 111.373 127.013 109.186 125.76C107.026 124.48 105.306 122.747 104.026 120.56C102.773 118.347 102.146 115.907 102.146 113.24C102.146 110.52 102.76 108.067 103.986 105.88C105.213 103.693 106.893 101.987 109.026 100.76C111.16 99.5067 113.56 98.88 116.226 98.88C117.666 98.88 119.08 99.0533 120.466 99.4C121.853 99.7467 123.04 100.24 124.026 100.88L122.946 107.08C121.026 106.36 119.293 106 117.746 106C115.613 106 113.973 106.627 112.826 107.88C111.68 109.107 111.106 110.88 111.106 113.2C111.106 115.467 111.706 117.24 112.906 118.52C114.133 119.773 115.826 120.4 117.986 120.4C118.813 120.4 119.586 120.32 120.306 120.16C121.026 120 121.906 119.707 122.946 119.28L124.066 125.6C121.746 126.96 119.213 127.64 116.466 127.64ZM135.535 127.32C133.802 127.32 132.175 126.867 130.655 125.96C129.162 125.027 127.962 123.773 127.055 122.2C126.149 120.6 125.695 118.827 125.695 116.88C125.695 114.96 126.149 113.227 127.055 111.68C127.962 110.107 129.175 108.88 130.695 108C132.215 107.12 133.829 106.68 135.535 106.68C136.922 106.68 138.202 107.067 139.375 107.84C140.575 108.613 141.482 109.773 142.095 111.32V106.68H150.495V127H142.095V123.28C140.762 125.973 138.575 127.32 135.535 127.32ZM138.135 121C139.202 121 140.109 120.627 140.855 119.88C141.629 119.107 142.042 118.2 142.095 117.16V116.84C142.042 115.773 141.615 114.867 140.815 114.12C140.042 113.373 139.149 113 138.135 113C137.015 113 136.055 113.4 135.255 114.2C134.482 114.973 134.095 115.907 134.095 117C134.095 118.12 134.495 119.067 135.295 119.84C136.095 120.613 137.042 121 138.135 121ZM154.547 107.24H162.987V111.32C163.6 109.747 164.427 108.587 165.467 107.84C166.534 107.067 167.774 106.68 169.187 106.68L170.347 113.2C167.814 113.2 165.947 113.48 164.747 114.04C163.574 114.573 162.987 115.427 162.987 116.6V127H154.547V107.24ZM181.158 127.32C178.812 127.32 176.985 126.653 175.678 125.32C174.372 123.96 173.718 122.093 173.718 119.72V111.92H171.158V106.96H174.318L178.038 99.4H182.078V106.96H186.718V111.92H182.078V118.72C182.078 119.387 182.292 119.907 182.718 120.28C183.145 120.653 183.745 120.84 184.518 120.84C185.238 120.84 185.892 120.68 186.478 120.36L186.798 125.96C186.132 126.36 185.265 126.693 184.198 126.96C183.158 127.2 182.145 127.32 181.158 127.32Z" fill="white"/>
<path d="M80.8872 127.32C78.6472 127.32 76.6472 126.88 74.8872 126C73.1539 125.12 71.7939 123.907 70.8072 122.36C69.8472 120.787 69.3672 118.987 69.3672 116.96C69.3672 114.933 69.8605 113.147 70.8472 111.6C71.8339 110.027 73.1939 108.813 74.9272 107.96C76.6872 107.107 78.6872 106.68 80.9272 106.68C83.1939 106.68 85.1939 107.12 86.9272 108C88.6872 108.853 90.0472 110.053 91.0072 111.6C91.9672 113.147 92.4472 114.933 92.4472 116.96C92.4472 119.013 91.9539 120.827 90.9672 122.4C90.0072 123.947 88.6472 125.16 86.8872 126.04C85.1539 126.893 83.1539 127.32 80.8872 127.32ZM80.9672 121.32C82.0605 121.32 82.9539 120.92 83.6472 120.12C84.3672 119.293 84.7272 118.24 84.7272 116.96C84.7272 115.68 84.3672 114.64 83.6472 113.84C82.9539 113.013 82.0605 112.6 80.9672 112.6C79.8739 112.6 78.9672 113.013 78.2472 113.84C77.5539 114.64 77.2072 115.68 77.2072 116.96C77.2072 118.24 77.5539 119.293 78.2472 120.12C78.9672 120.92 79.8739 121.32 80.9672 121.32Z" fill="#8CE9B3"/>
</g>
<defs>
<clipPath id="clip0_74_74">
<rect width="230" height="230" fill="white"/>
</clipPath>
</defs>
</svg>
