<svg width="43" height="43" viewBox="0 0 43 43" fill="none" xmlns="http://www.w3.org/2000/svg">
<path d="M21.5003 30.4584C22.4507 30.4584 23.3621 30.0809 24.0341 29.4089C24.7061 28.7369 25.0837 27.8254 25.0837 26.8751C25.0837 25.9247 24.7061 25.0133 24.0341 24.3413C23.3621 23.6693 22.4507 23.2917 21.5003 23.2917C20.55 23.2917 19.6385 23.6693 18.9665 24.3413C18.2945 25.0133 17.917 25.9247 17.917 26.8751C17.917 27.8254 18.2945 28.7369 18.9665 29.4089C19.6385 30.0809 20.55 30.4584 21.5003 30.4584ZM32.2503 14.3334C33.2007 14.3334 34.1121 14.7109 34.7841 15.3829C35.4561 16.055 35.8337 16.9664 35.8337 17.9167V35.8334C35.8337 36.7838 35.4561 37.6952 34.7841 38.3672C34.1121 39.0392 33.2007 39.4167 32.2503 39.4167H10.7503C9.79997 39.4167 8.88853 39.0392 8.21653 38.3672C7.54452 37.6952 7.16699 36.7838 7.16699 35.8334V17.9167C7.16699 16.9664 7.54452 16.055 8.21653 15.3829C8.88853 14.7109 9.79997 14.3334 10.7503 14.3334H12.542V10.7501C12.542 8.37418 13.4858 6.0956 15.1658 4.41558C16.8458 2.73557 19.1244 1.79175 21.5003 1.79175C22.6768 1.79175 23.8417 2.02346 24.9285 2.47366C26.0154 2.92386 27.003 3.58372 27.8348 4.41558C28.6667 5.24744 29.3265 6.235 29.7767 7.32188C30.2269 8.40875 30.4587 9.57366 30.4587 10.7501V14.3334H32.2503ZM21.5003 5.37508C20.0748 5.37508 18.7076 5.94137 17.6996 6.94938C16.6916 7.95739 16.1253 9.32454 16.1253 10.7501V14.3334H26.8753V10.7501C26.8753 9.32454 26.309 7.95739 25.301 6.94938C24.293 5.94137 22.9259 5.37508 21.5003 5.37508Z" fill="black"/>
</svg>
