<svg width="43" height="43" viewBox="0 0 43 43" fill="none" xmlns="http://www.w3.org/2000/svg">
<path d="M3.65466 41.1379L3.65432 41.1378C1.81187 40.856 0.5 39.372 0.5 37.6737V34.5738C0.5 32.1215 1.53544 29.7629 3.3896 28.0189C5.2448 26.274 7.76718 25.2887 10.4032 25.2887H11.3492H11.3494C11.8116 25.2885 12.2706 25.357 12.7093 25.4913L15.1112 26.2295L15.1113 26.2296C19.2629 27.5042 23.7371 27.5042 27.8887 26.2296L27.8888 26.2295L30.2885 25.4919C30.2889 25.4918 30.2893 25.4917 30.2898 25.4916C30.7298 25.3592 31.1913 25.2887 31.6535 25.2887H32.5968C35.2328 25.2887 37.7552 26.274 39.6104 28.0189C41.4646 29.7629 42.5 32.1215 42.5 34.5738V37.6737C42.5 38.4981 42.1885 39.3004 41.6135 39.9364C41.0378 40.5731 40.2349 41.0016 39.3456 41.1378L39.3453 41.1379C27.5277 42.954 15.4723 42.954 3.65466 41.1379ZM14.4864 3.23018C16.3416 1.48522 18.864 0.5 21.5 0.5C24.136 0.5 26.6584 1.48522 28.5136 3.23018C30.3678 4.97416 31.4032 7.33272 31.4032 9.78503C31.4032 12.2373 30.3678 14.5959 28.5136 16.3399C26.6584 18.0848 24.136 19.0701 21.5 19.0701C18.864 19.0701 16.3416 18.0848 14.4864 16.3399C12.6322 14.5959 11.5968 12.2373 11.5968 9.78503C11.5968 7.33272 12.6322 4.97416 14.4864 3.23018Z" fill="black" stroke="black"/>
</svg>
